<?xml version="1.0" encoding="utf-8"?>
<!-- Generator: Adobe Illustrator 25.4.1, SVG Export Plug-In . SVG Version: 6.00 Build 0)  -->
<svg version="1.1" id="Layer_1" xmlns="http://www.w3.org/2000/svg" xmlns:xlink="http://www.w3.org/1999/xlink" x="0px" y="0px"
	 width="51.76" height="36.61" viewBox="0 0 51.76 36.61" style="enable-background:new 0 0 51.76 36.61;" xml:space="preserve">
<g>
	<path style="fill:#007EB4;" d="M37.24,36.61H14.52c-2.43,0-4.41-1.98-4.41-4.41v-2.27c0-5.36,4.36-9.72,9.72-9.72h0.8l0.13,0.06
		c3.34,1.6,6.97,1.59,10.27,0l0.13-0.06h0.8c5.36,0,9.72,4.36,9.72,9.72v2.27C41.66,34.63,39.68,36.61,37.24,36.61z M19.82,21.46
		c-4.67,0-8.47,3.8-8.47,8.47v2.27c0,1.75,1.42,3.16,3.16,3.16h22.73c1.74,0,3.16-1.42,3.16-3.16v-2.27c0-4.67-3.8-8.47-8.47-8.47
		h-0.51c-3.57,1.67-7.49,1.68-11.09,0H19.82z M48.61,29.03h-5.76l-0.07-0.54c-0.45-3.43-2.55-6.49-5.61-8.17l-0.73-0.4l0.59-0.59
		c1.07-1.06,2.49-1.65,4-1.65h5.05c3.13,0,5.67,2.55,5.67,5.68v2.52C51.76,27.62,50.35,29.03,48.61,29.03z M43.94,27.78h4.67
		c1.05,0,1.9-0.85,1.9-1.9v-2.52c0-2.44-1.98-4.43-4.42-4.43h-5.05c-0.9,0-1.75,0.27-2.48,0.76C41.38,21.53,43.35,24.47,43.94,27.78
		z M8.9,29.03H3.15C1.41,29.03,0,27.62,0,25.88v-2.52c0-3.13,2.55-5.68,5.68-5.68h5.05c1.51,0,2.93,0.59,4,1.65l0.59,0.59l-0.73,0.4
		c-3.06,1.68-5.16,4.73-5.62,8.17L8.9,29.03z M5.68,18.93c-2.44,0-4.43,1.99-4.43,4.43v2.52c0,1.05,0.85,1.9,1.9,1.9h4.67
		c0.59-3.31,2.56-6.25,5.39-8.09c-0.73-0.5-1.58-0.76-2.48-0.76H5.68z M25.88,18.93c-5.22,0-9.46-4.25-9.46-9.46S20.66,0,25.88,0
		c5.22,0,9.46,4.25,9.46,9.46S31.1,18.93,25.88,18.93z M25.88,1.25c-4.53,0-8.21,3.68-8.21,8.21s3.69,8.21,8.21,8.21
		c4.53,0,8.21-3.68,8.21-8.21S30.41,1.25,25.88,1.25z M43.56,16.4c-3.13,0-5.68-2.55-5.68-5.68s2.55-5.68,5.68-5.68
		s5.68,2.55,5.68,5.68S46.69,16.4,43.56,16.4z M43.56,6.3c-2.44,0-4.43,1.99-4.43,4.43s1.99,4.43,4.43,4.43s4.43-1.99,4.43-4.43
		S46,6.3,43.56,6.3z M8.2,16.4c-3.13,0-5.68-2.55-5.68-5.68S5.07,5.05,8.2,5.05s5.68,2.55,5.68,5.68S11.33,16.4,8.2,16.4z M8.2,6.3
		c-2.44,0-4.43,1.99-4.43,4.43s1.99,4.43,4.43,4.43s4.43-1.99,4.43-4.43S10.64,6.3,8.2,6.3z"/>
</g>
</svg>
