<?xml version="1.0" encoding="utf-8"?>
<!-- Generator: Adobe Illustrator 25.4.1, SVG Export Plug-In . SVG Version: 6.00 Build 0)  -->
<svg version="1.1" id="Layer_1" xmlns="http://www.w3.org/2000/svg" xmlns:xlink="http://www.w3.org/1999/xlink" x="0px" y="0px"
	 width="51.76" height="36.61" viewBox="0 0 51.76 36.61" style="enable-background:new 0 0 51.76 36.61;" xml:space="preserve">
<g>
	<path style="fill:#007EB4;" d="M40.08,2.08L40.08,2.08c0.33,0,0.64,0.18,0.81,0.47L46.35,12c0.26,0.45,0.1,1.02-0.34,1.28
		l-3.59,2.07c-0.11-2.7-2.34-4.85-5.07-4.85H24.79h-1.25v1.25v6.01c0,0.82-0.66,1.48-1.48,1.48c-0.82,0-1.48-0.67-1.48-1.48V9.14
		c0-0.32,0.16-0.62,0.44-0.79l2.28-1.42c0.51-0.31,1.08-0.48,1.66-0.48h6.98h0.33l0.29-0.17l7.06-4.08
		C39.76,2.12,39.91,2.08,40.08,2.08 M15.89,11.67v6.09c0,3.4,2.77,6.17,6.17,6.17c3.4,0,6.17-2.77,6.17-6.17v-2.57h9.13
		c0.22,0,0.39,0.17,0.39,0.39v3.28c0,0.22-0.17,0.39-0.39,0.39H36.8h-1.25v1.25v4.37c0,0.52-0.42,0.94-0.93,0.94h-1.09h-1.25v1.25
		c0,1.72-1.4,3.12-3.12,3.12h-9.33H19.5l-0.29,0.17l-7.06,4.08c-0.15,0.08-0.3,0.12-0.47,0.12c-0.33,0-0.64-0.18-0.81-0.47
		L5.41,24.6c-0.12-0.21-0.16-0.46-0.09-0.71c0.06-0.24,0.22-0.44,0.44-0.57l5.46-3.15l0.62-0.36v-0.72v-3.23
		c0-1.09,0.58-2.11,1.52-2.67L15.89,11.67 M40.08,0.83c-0.37,0-0.75,0.09-1.09,0.29L31.93,5.2h-6.98c-0.82,0-1.62,0.23-2.32,0.66
		l-2.29,1.43c-0.64,0.4-1.02,1.1-1.02,1.85v8.62c0,1.51,1.22,2.73,2.73,2.73c1.51,0,2.73-1.22,2.73-2.73v-6.01h12.56
		c2.11,0,3.82,1.71,3.82,3.82v1.95l5.46-3.16c1.05-0.61,1.4-1.94,0.8-2.98l-5.46-9.46C41.57,1.22,40.83,0.83,40.08,0.83 M17.14,9.46
		l-4.43,2.66c-1.32,0.79-2.12,2.21-2.12,3.74v3.23l-5.46,3.15c-1.05,0.6-1.41,1.94-0.8,2.98l5.46,9.46c0.4,0.7,1.14,1.09,1.89,1.09
		c0.37,0,0.75-0.09,1.09-0.29l7.06-4.08h9.33c2.41,0,4.37-1.96,4.37-4.37h1.09c1.21,0,2.18-0.98,2.18-2.19v-4.37h0.55
		c0.91,0,1.64-0.73,1.64-1.64v-3.28c0-0.91-0.73-1.64-1.64-1.64H26.97v3.82c0,2.71-2.21,4.92-4.92,4.92s-4.92-2.21-4.92-4.92V9.46z"
		/>
</g>
</svg>
