<?xml version="1.0" encoding="utf-8"?>
<!-- Generator: Adobe Illustrator 25.4.1, SVG Export Plug-In . SVG Version: 6.00 Build 0)  -->
<svg version="1.1" id="Layer_1" xmlns="http://www.w3.org/2000/svg" xmlns:xlink="http://www.w3.org/1999/xlink" x="0px" y="0px"
	 width="51.76" height="36.61" viewBox="0 0 51.76 36.61" style="enable-background:new 0 0 51.76 36.61;" xml:space="preserve">
<g>
	<path style="fill:#007EB4;" d="M25.88,36.38c-9.97,0-18.08-8.11-18.08-18.08S15.91,0.23,25.88,0.23c9.97,0,18.08,8.11,18.08,18.08
		S35.85,36.38,25.88,36.38z M25.88,1.48C16.6,1.48,9.05,9.03,9.05,18.3c0,9.28,7.55,16.83,16.83,16.83
		c9.28,0,16.83-7.55,16.83-16.83C42.71,9.03,35.16,1.48,25.88,1.48z M30.42,25.32l-4.71-3.5c-0.75-0.6-1.31-1.76-1.31-2.7V8.17h1.25
		v10.95c0,0.56,0.38,1.36,0.82,1.71l4.7,3.49L30.42,25.32z"/>
</g>
</svg>
