<?xml version="1.0" encoding="utf-8"?>
<!-- Generator: Adobe Illustrator 25.4.1, SVG Export Plug-In . SVG Version: 6.00 Build 0)  -->
<svg version="1.1" id="Layer_1" xmlns="http://www.w3.org/2000/svg" xmlns:xlink="http://www.w3.org/1999/xlink" x="0px" y="0px"
	 width="51.76" height="36.61" viewBox="0 0 51.76 36.61" style="enable-background:new 0 0 51.76 36.61;" xml:space="preserve">
<g>
	<path style="fill:#007EB4;" d="M35.94,36.6H22.29c-1.13,0-2.53-0.71-3.19-1.62l-8.67-11.92c-1.1-1.51-0.76-3.63,0.75-4.73
		c0.73-0.53,1.63-0.75,2.52-0.61c0.89,0.14,1.68,0.62,2.21,1.35l1.05,1.45V6.15c0-1.83,1.49-3.35,3.32-3.39
		c0.9,0.02,1.76,0.33,2.41,0.97c0.12,0.12,0.24,0.25,0.34,0.39V3.39c0-1.83,1.49-3.35,3.32-3.39c0.9,0,1.76,0.33,2.41,0.97
		c0.66,0.65,1.04,1.55,1.04,2.47v0.59c0.61-0.79,1.56-1.32,2.62-1.34c0.89-0.01,1.76,0.33,2.41,0.97c0.66,0.65,1.04,1.55,1.04,2.47
		v4.06c0.1-0.14,0.22-0.27,0.34-0.39c0.65-0.64,1.51-0.97,2.41-0.97c1.83,0.04,3.32,1.55,3.32,3.39v10.38c0,0.9-0.16,2.3-0.37,3.18
		l-1.83,7.78C39.35,35.35,37.77,36.6,35.94,36.6z M13.17,18.93c-0.45,0-0.88,0.14-1.25,0.41c-0.95,0.69-1.16,2.03-0.47,2.99
		l8.67,11.92c0.43,0.59,1.44,1.11,2.17,1.11h13.64c1.25,0,2.33-0.85,2.62-2.07l1.83-7.78c0.18-0.77,0.34-2.1,0.34-2.89V12.23
		c0-1.16-0.94-2.11-2.1-2.14c-0.57,0-1.1,0.21-1.51,0.61c-0.42,0.42-0.67,0.99-0.67,1.58v6.65h-1.8V6.14c0-0.59-0.24-1.17-0.67-1.58
		c-0.41-0.4-0.94-0.6-1.51-0.61c-1.15,0.02-2.09,0.98-2.09,2.14v12.84h-1.8V3.45c0-0.59-0.24-1.17-0.67-1.58
		c-0.41-0.4-0.94-0.6-1.51-0.61c-1.15,0.02-2.09,0.98-2.09,2.14v15.54h-1.8V6.21c0-0.59-0.24-1.16-0.67-1.58
		C21.41,4.22,20.87,4,20.31,4.02C19.16,4.04,18.22,5,18.22,6.15v18.21l-3.32-4.56c-0.34-0.46-0.83-0.77-1.4-0.85
		C13.4,18.94,13.28,18.93,13.17,18.93z"/>
</g>
</svg>
