<?xml version="1.0" encoding="utf-8"?>
<!-- Generator: Adobe Illustrator 25.4.1, SVG Export Plug-In . SVG Version: 6.00 Build 0)  -->
<svg version="1.1" id="Layer_1" xmlns="http://www.w3.org/2000/svg" xmlns:xlink="http://www.w3.org/1999/xlink" x="0px" y="0px"
	 width="51.76" height="36.61" viewBox="0 0 51.76 36.61" style="enable-background:new 0 0 51.76 36.61;" xml:space="preserve">
<g>
	<path style="fill:#007EB4;" d="M25.88,36.43c-0.51,0-1.02-0.1-1.5-0.3C16.9,33.01,8.85,23.37,8.85,9.55c0-1.58,0.95-3,2.41-3.61
		l13.12-5.47c0.42-0.17,1.06-0.3,1.5-0.3c0.44,0,1.09,0.13,1.5,0.3l13.13,5.47c1.46,0.61,2.4,2.02,2.4,3.61
		c0,6.79-1.9,13.06-5.49,18.12c-3.89,5.48-8.32,7.74-10.04,8.46C26.9,36.33,26.39,36.43,25.88,36.43z M25.88,1.43
		c-0.28,0-0.76,0.1-1.02,0.21L11.74,7.1c-1,0.41-1.64,1.37-1.64,2.45c0,13.24,7.65,22.46,14.76,25.42c0.65,0.27,1.39,0.27,2.04,0
		c11.68-4.86,14.76-18.76,14.76-25.42c0-1.08-0.64-2.04-1.63-2.45L26.9,1.63C26.65,1.53,26.16,1.43,25.88,1.43z M25.26,32.32
		L25.25,4.33l13.29,5.54l-0.01,0.43c-0.25,11.5-6.55,18.69-12.37,21.58L25.26,32.32z M26.51,6.21l0.01,24.07
		c5.14-2.96,10.4-9.48,10.76-19.58L26.51,6.21z"/>
</g>
</svg>
