<?xml version="1.0" encoding="utf-8"?>
<!-- Generator: Adobe Illustrator 25.4.1, SVG Export Plug-In . SVG Version: 6.00 Build 0)  -->
<svg version="1.1" id="Layer_1" xmlns="http://www.w3.org/2000/svg" xmlns:xlink="http://www.w3.org/1999/xlink" x="0px" y="0px"
	 width="51.76" height="36.61" viewBox="0 0 51.76 36.61" style="enable-background:new 0 0 51.76 36.61;" xml:space="preserve">
<g>
	<path style="fill:#007EB4;" d="M27.98,36.38h-4.21c-0.86,0-1.86-0.54-2.34-1.25l-1.17-1.75c-0.3-0.46-0.47-0.99-0.47-1.55l0-3.24
		h12.16l0,3.24c0,0.48-0.2,1.15-0.47,1.55l-1.16,1.75C29.84,35.84,28.84,36.38,27.98,36.38z M21.05,29.83l0,1.99
		c0,0.31,0.09,0.61,0.26,0.86l1.16,1.75c0.24,0.36,0.86,0.69,1.3,0.69h4.21c0.44,0,1.05-0.33,1.3-0.69l1.16-1.75
		c0.13-0.2,0.26-0.62,0.26-0.86l0-1.99H21.05z M31.34,27.65H19.86L19.8,27.1c-0.67-2.25-2.45-4.85-3.42-5.95
		c-2.01-2.3-3.12-5.25-3.12-8.3c0-6.94,5.65-12.6,12.58-12.62l0,0c0.01,0,0.03,0,0.04,0c3.36,0,6.53,1.31,8.91,3.68
		c2.39,2.38,3.71,5.56,3.71,8.94c0,3.06-1.11,6.01-3.12,8.3c-0.96,1.09-2.72,3.67-3.42,5.95l-0.06,0.5L31.34,27.65z M20.88,26.4
		h9.99c0.81-2.38,2.58-4.96,3.56-6.07c1.81-2.07,2.81-4.73,2.81-7.48c0-3.04-1.19-5.91-3.34-8.05c-2.15-2.14-5-3.32-8.03-3.32
		c-0.01,0-0.03,0-0.04,0h0C19.49,1.5,14.51,6.49,14.51,12.85c0,2.75,1,5.41,2.81,7.48C18.3,21.45,20.07,24.02,20.88,26.4z
		 M19.34,14.57c-0.95,0-1.72-0.77-1.72-1.72c0-4.55,3.71-8.26,8.26-8.26c0.95,0,1.72,0.77,1.72,1.72c0,0.95-0.77,1.71-1.72,1.71
		c-2.66,0-4.83,2.17-4.83,4.83C21.05,13.8,20.28,14.57,19.34,14.57z M25.88,5.84c-3.87,0-7.01,3.14-7.01,7.01
		c0,0.26,0.21,0.47,0.47,0.47c0.26,0,0.47-0.21,0.47-0.47c0-3.35,2.73-6.08,6.08-6.08c0.26,0,0.47-0.21,0.47-0.46
		C26.35,6.05,26.14,5.84,25.88,5.84z"/>
</g>
</svg>
