<?xml version="1.0" encoding="utf-8"?>
<!-- Generator: Adobe Illustrator 25.4.1, SVG Export Plug-In . SVG Version: 6.00 Build 0)  -->
<svg version="1.1" id="Layer_1" xmlns="http://www.w3.org/2000/svg" xmlns:xlink="http://www.w3.org/1999/xlink" x="0px" y="0px"
	 width="51.76" height="36.61" viewBox="0 0 51.76 36.61" style="enable-background:new 0 0 51.76 36.61;" xml:space="preserve">
<g>
	<path style="fill:#007EB4;" d="M43.68,28.62c0,0.1-0.01,0.21-0.02,0.31c-0.36,3.4-7.18,5.5-17.79,5.5
		c-10.61,0-17.43-2.12-17.79-5.52c-0.01-0.1-0.02-0.2-0.02-0.29v-4.2c0.06-0.51,0.5-0.85,1-0.84h0.99v3.14
		c0.02,0.61,0.27,1.18,0.72,1.6c0.45,0.42,1.02,0.64,1.64,0.63h26.9c1.26,0.02,2.33-0.96,2.37-2.22v-3.14h0.99
		c0.5-0.03,0.93,0.33,0.99,0.82V28.62z M11.44,20.45c-0.07-5.22,2.47-10.09,6.79-13.01l0.24-0.17v11.03c0,0.37,0.31,0.69,0.69,0.69
		c0.38,0,0.69-0.31,0.69-0.69V5.8l2.83-1.03V9.6l-0.61,0.56c-0.18,0.17-0.27,0.41-0.22,0.65c0.06,0.25,0.23,0.44,0.46,0.51
		c0.24,0.07,0.49,0.02,0.68-0.14l0.84-0.77c0.14-0.13,0.23-0.32,0.23-0.51V3.03c0.06-0.52,0.49-0.88,1.01-0.84h1.67
		c0.5-0.04,0.93,0.32,0.99,0.82l0.01,6.89c0,0.2,0.08,0.38,0.23,0.51l0.84,0.77c0.28,0.25,0.71,0.23,0.96-0.05
		c0.13-0.14,0.19-0.31,0.18-0.5c-0.01-0.18-0.09-0.35-0.22-0.47L29.09,9.6V4.77l2.83,1.03v12.51c0,0.37,0.31,0.69,0.68,0.69
		c0.38,0,0.69-0.31,0.69-0.69V7.27l0.24,0.17c4.32,2.93,6.86,7.79,6.79,13.01v6.26c-0.06,0.52-0.51,0.89-1.01,0.84l-26.89,0.01
		h-0.07c-0.46,0-0.86-0.35-0.92-0.83V20.45z M42.75,22.2H41.7v-1.75c0.08-6.06-3.12-11.71-8.37-14.74l-0.06-0.04L33.25,5.6
		c-0.09-0.52-0.45-0.95-0.95-1.12l-3.22-1.17V3.03c-0.04-1.23-1.06-2.22-2.3-2.22c-0.02,0-0.05,0.01-0.07,0.01h-1.68
		c-1.25-0.05-2.33,0.96-2.37,2.22v0.28l-3.22,1.17c-0.49,0.18-0.85,0.61-0.94,1.12L18.5,5.67l-0.07,0.04
		c-5.24,3.03-8.45,8.68-8.37,14.74v1.75H9.01c-1.24,0-2.27,0.99-2.31,2.22V29c0,0.09,0.02,0.18,0.06,0.26l0.02,0.05
		c0.95,5.86,13.67,6.49,19.11,6.49c5.43,0,18.17-0.63,19.1-6.49L45,29.27c0.04-0.09,0.06-0.18,0.06-0.27v-4.59
		C45.02,23.19,43.99,22.2,42.75,22.2"/>
</g>
</svg>
